# xmcd
#
# Track frame offsets:
#	150
#	22908
#	44858
#	72071
#	91260
#	115618
#	139261
#	162040
#	180577
#	199483
#
# Disc length: 2973 seconds
#
# Revision: 0
# Processed by: cddbd v1.4PL0 Copyright (c) Steve Scherf et al.
# Submitted via: EasyCDDAExtractor 4.6.9.1
#
DISCID=840b9b0a
DTITLE=Martin John Collins - Out of the blue
DYEAR=1900
DGENRE=
TTITLE0=Cold Light of Day
TTITLE1=Out of the blue
TTITLE2=Point of no return
TTITLE3=Put on my shoes
TTITLE4=We are love
TTITLE5=Song of the silent
TTITLE6=Has it come to this
TTITLE7=Like nobody's watching
TTITLE8=One of these days
TTITLE9=Hunger for justice
EXTD=
EXTT0=
EXTT1=
EXTT2=
EXTT3=
EXTT4=
EXTT5=
EXTT6=
EXTT7=
EXTT8=
EXTT9=
PLAYORDER=
